inDegrees=yes
name=ik_S54_A08_T02
DataType=double
version=3
OpenSimVersion=4.3-2021-08-27-4bc7ad9
endheader
time	pelvis_tilt	pelvis_list	pelvis_rotation	pelvis_tx	pelvis_ty	pelvis_tz	hip_flexion_r	hip_adduction_r	hip_rotation_r	knee_angle_r	knee_angle_r_beta	ankle_angle_r	subtalar_angle_r	mtp_angle_r	hip_flexion_l	hip_adduction_l	hip_rotation_l	knee_angle_l	knee_angle_l_beta	ankle_angle_l	subtalar_angle_l	mtp_angle_l	lumbar_extension	lumbar_bending	lumbar_rotation	arm_flex_r	arm_add_r	arm_rot_r	elbow_flex_r	pro_sup_r	wrist_flex_r	wrist_dev_r	arm_flex_l	arm_add_l	arm_rot_l	elbow_flex_l	pro_sup_l	wrist_flex_l	wrist_dev_l
6.679999999999946	-5.875212483623066	-0.6429968932731415	20.94989330626415	0	0.9399999999999999	0	43.8163626945265	-10.09028528508906	-10.18098423656101	55.53240182032791	0.9692232533052144	0	0	0	43.8163626945265	-10.09028528508906	-10.18098423656101	55.53240182032791	0.9692232533052144	0	0	0	-5.106759860123079	-1.50191180622004	0.6723731666447159	30.13015883056654	-1.805769075037406	-2.899017194498702	50.43191961249676	135.6897796281312	0	0	22.50089603062026	-20.36708797655838	-8.761813303963853	77.84921432006124	126.1152121182779	0	0
6.699999999999945	-5.955404197861871	-0.5475172268186249	20.69646295717244	0	0.9399999999999999	0	43.81694573192997	-10.09013104913181	-10.18078543887135	55.53222522045338	0.9692201710559453	0	0	0	43.81694573192997	-10.09013104913181	-10.18078543887135	55.53222522045338	0.9692201710559453	0	0	0	-5.14488242047974	-1.395021434281029	0.7637892381253907	30.23543317087287	-1.889319146860531	-2.750536088181453	50.37674376294705	135.8031506177102	0	0	23.60041908006426	-21.10224047738714	-8.466065247588192	78.39563792155734	122.7384960430568	0	0
6.719999999999945	-5.943384768744514	-0.5493838411095242	20.59290714097427	0	0.9399999999999999	0	43.81749872829156	-10.0899850162559	-10.18059706926458	55.53205759054895	0.9692172453621883	0	0	0	43.81749872829156	-10.0899850162559	-10.18059706926458	55.53205759054895	0.9692172453621883	0	0	0	-5.133309494943288	-1.411717064207757	0.870869087128184	30.21085846590274	-1.877172606835978	-2.770120162011319	50.3659779895433	135.7956534026578	0	0	24.73863065663079	-21.99588620515559	-7.876163154621134	78.93228767908526	119.8440344775044	0	0
6.739999999999944	-5.986802078966745	-0.5048489047956085	20.38024950576558	0	0.9399999999999999	0	43.8181938936611	-10.0898011849159	-10.18036000016625	55.53184737681593	0.9692135764404141	0	0	0	43.8181938936611	-10.0898011849159	-10.18036000016625	55.53184737681593	0.9692135764404141	0	0	0	-5.157116236385536	-1.363473395407387	0.9840849767596656	30.31098223209845	-1.760685408534744	-2.872251069216322	50.35114466068691	135.904990531435	0	0	24.73231491356808	-21.91733343304709	-7.948203712807058	80.42559446357414	118.4050094461379	0	0
6.759999999999944	-6.060991086517189	-0.4398682514677264	20.16247127303199	0	0.9399999999999999	0	43.81863716818116	-10.08968399045734	-10.18020882305787	55.53171344365118	0.9692112388657116	0	0	0	43.81863716818116	-10.08968399045734	-10.18020882305787	55.53171344365118	0.9692112388657116	0	0	0	-5.204309105232638	-1.279969901185037	1.03243434242783	30.45110172614211	-1.733197729813153	-2.865300655701974	50.40902489247797	135.8889610764107	0	0	26.03355908080611	-22.6721759849616	-7.539452348667003	80.80923062245347	116.4071287537553	0	0
6.779999999999943	-6.096799487569357	-0.3934202561045867	19.99842264160628	0	0.9399999999999999	0	43.81904038865762	-10.08957867121655	-10.18007238320235	55.53159032043298	0.9692090899601685	0	0	0	43.81904038865762	-10.08957867121655	-10.18007238320235	55.53159032043298	0.9692090899601685	0	0	0	-5.221177059688584	-1.230804592092151	1.11645526438973	30.4988473367605	-1.772572108001232	-2.811813550655648	50.46841389780198	135.7160592037092	0	0	26.02378173705497	-22.60099967262046	-7.630471717219979	82.07182701796198	115.5502661160917	0	0
6.799999999999943	-6.105690227170661	-0.3571446193202746	19.63121969121039	0	0.9399999999999999	0	43.83688197210019	-10.08646919042739	-10.17537013045357	55.52443910621186	0.9690842777264944	0	0	0	43.83688197210019	-10.08646919042739	-10.17537013045357	55.52443910621186	0.9690842777264944	0	0	0	-5.221233289315679	-1.194646340221216	1.359668770185356	30.49364471667269	-1.792547545846445	-2.676040705391259	50.57302469661614	135.53006825431	0	0	30.18448476603387	-24.86307487262762	-5.369634809980887	79.82426712637205	111.8587141351241	0	0
6.819999999999943	-6.157101746506663	-0.3130207468799402	19.47910080631163	0	0.9399999999999999	0	43.8373169370014	-10.08635801186131	-10.17522472251273	55.52430595872571	0.9690819538644704	0	0	0	43.8373169370014	-10.08635801186131	-10.17522472251273	55.52430595872571	0.9690819538644704	0	0	0	-5.254400348809206	-1.141821901105546	1.435457742146479	30.57677156940832	-1.850164752301776	-2.58951581442775	50.50213011579271	135.5599399919531	0	0	30.21484383615535	-24.77803541971559	-5.472976622094092	80.69715270033572	110.9091459942325	0	0
6.839999999999942	-6.182942244060497	-0.2708828176201433	19.1514267284536	0	0.9399999999999999	0	43.8378412061645	-10.08622248369724	-10.17504811732449	55.52414728564217	0.9690791844967283	0	0	0	43.8378412061645	-10.08622248369724	-10.17504811732449	55.52414728564217	0.9690791844967283	0	0	0	-5.262745937866148	-1.114892592290927	1.624355831784997	30.62614871455324	-1.859550926767306	-2.455168666069346	50.52447871067587	135.4540869532233	0	0	33.16061186563548	-26.01301154016963	-3.765396246286524	79.18111468843379	108.2160549100739	0	0
6.859999999999942	-6.202171259724622	-0.252174005242956	18.99737243789561	0	0.9399999999999999	0	43.83835012282326	-10.08609096892345	-10.17487669286746	55.52399333966338	0.9690764976325281	0	0	0	43.83835012282326	-10.08609096892345	-10.17487669286746	55.52399333966338	0.9690764976325281	0	0	0	-5.275011601583319	-1.099884220160693	1.728353073296531	30.68277550667485	-1.876018047542175	-2.428446815061324	50.49041048219004	135.3902512589403	0	0	34.67410748492677	-26.42360301204641	-2.92517375190429	78.70254756715531	107.0358798477385	0	0
6.879999999999941	-6.245035546333452	-0.1868652181754094	18.76689780717467	0	0.9399999999999999	0	43.83886140996484	-10.08595891886339	-10.17470450489065	55.5238387319282	0.9690737992185002	0	0	0	43.83886140996484	-10.08595891886339	-10.17470450489065	55.5238387319282	0.9690737992185002	0	0	0	-5.294237431984338	-1.027138225668962	1.768220107627505	30.78369404825874	-1.913786051831179	-2.245111518289006	50.45289913044432	135.3430668959283	0	0	36.10452700821896	-26.81086235472168	-2.246775320257624	77.48166491629466	106.3245722812914	0	0
6.899999999999941	-6.266936622195215	-0.1734995730898991	18.62886479259094	0	0.9399999999999999	0	43.83920757071652	-10.08586992816989	-10.1745882694758	55.52373366081859	0.9690719653816889	0	0	0	43.83920757071652	-10.08586992816989	-10.1745882694758	55.52373366081859	0.9690719653816889	0	0	0	-5.30971904437338	-1.014575014537487	1.827042585305247	30.8258306810426	-1.913030056461186	-2.152357405623347	50.48830866413886	135.2555080347619	0	0	37.61289708732015	-27.27834098997464	-1.522377626651419	77.71065892556997	106.5063082960422	0	0
6.91999999999994	-6.306197599996452	-0.1351502933125056	18.45101166572712	0	0.9399999999999999	0	43.83976904215874	-10.08572506703994	-10.17439925521452	55.52356395596897	0.9690690034733064	0	0	0	43.83976904215874	-10.08572506703994	-10.17439925521452	55.52356395596897	0.9690690034733064	0	0	0	-5.334234763013523	-0.9724544994083542	1.889009944091024	30.93120164146537	-1.938225170310125	-2.064092691010992	50.41165956126526	135.2534784273264	0	0	39.22494077390374	-27.60913166301536	-0.745918325156214	76.793006438483	106.4793310337253	0	0
6.93999999999994	-6.349709839202742	-0.09695541501587157	18.34610851121463	0	0.9399999999999999	0	43.84008618884157	-10.08564422414431	-10.17429331918966	55.52346710028535	0.969067313022728	0	0	0	43.84008618884157	-10.08564422414431	-10.17429331918966	55.52346710028535	0.969067313022728	0	0	0	-5.363696057208402	-0.918578126690072	1.857169801084009	31.0024248667488	-1.960485222827068	-1.89822254764663	50.41767156566905	135.2118088515917	0	0	39.20415823002396	-27.60613224679631	-0.9518421915614765	76.9747606291547	106.7721323247737	0	0
6.95999999999994	-6.388688386278693	-0.02278408187166732	18.11140381471473	0	0.9399999999999999	0	43.84050946732611	-10.08553545689111	-10.17415116474891	55.52333886286631	0.9690650748575415	0	0	0	43.84050946732611	-10.08553545689111	-10.17415116474891	55.52333886286631	0.9690650748575415	0	0	0	-5.377676666633408	-0.8405827873837818	1.917515768231649	31.05725277920605	-2.11263080156895	-1.730234577966275	50.42810988108092	135.1062098265294	0	0	40.75158875279275	-27.82020095903095	-0.2668435864985564	75.67401848822547	106.2243104414795	0	0
6.979999999999939	-6.407914227651703	0.009020100233819267	17.92226589365525	0	0.9399999999999999	0	43.84095610619528	-10.08542083698152	-10.17400126959042	55.52320349376384	0.9690627122209979	0	0	0	43.84095610619528	-10.08542083698152	-10.17400126959042	55.52320349376384	0.9690627122209979	0	0	0	-5.386270929962183	-0.8118020443137747	2.0068512978552	31.10727819333556	-2.068073978363536	-1.649427747726296	50.40433212035306	134.9528403612394	0	0	42.27182439577847	-27.91496918515017	0.5517719030806203	74.22157510392425	105.7041912204851	0	0
6.999999999999939	-6.446515411752181	0.04531117861343553	17.58491839047086	0	0.9399999999999999	0	43.84147347683885	-10.08528813835833	-10.17382766921826	55.52304674099786	0.96905997636912	0	0	0	43.84147347683885	-10.08528813835833	-10.17382766921826	55.52304674099786	0.96905997636912	0	0	0	-5.415160366638315	-0.7816690209306024	2.236706769838081	31.17616883602902	-2.052150730475134	-1.495580996122731	50.42009385449645	134.847039058747	0	0	45.17602649284024	-27.8881337315501	2.302594960859202	71.49565551140989	104.7183994855543	0	0
7.019999999999938	-6.491873547362754	0.07778289837789533	17.3668541503881	0	0.9399999999999999	0	43.84201515394609	-10.08514948392905	-10.17364612230605	55.52288245551952	0.9690571090466097	0	0	0	43.84201515394609	-10.08514948392905	-10.17364612230605	55.52288245551952	0.9690571090466097	0	0	0	-5.449347108751142	-0.744666668842681	2.337068334504298	31.24784278841557	-2.030790567177212	-1.324730347135225	50.40604433286713	134.8253867031226	0	0	46.55068456997316	-27.88835172657116	3.068666312632131	69.90517356364163	103.9405520786568	0	0
7.039999999999938	-6.530055725630387	0.1158240671888568	17.17814896621305	0	0.9399999999999999	0	43.84268648293355	-10.0849776447887	-10.1734210746553	55.5226790645133	0.9690535592038821	0	0	0	43.84268648293355	-10.0849776447887	-10.1734210746553	55.5226790645133	0.9690535592038821	0	0	0	-5.47503383610991	-0.7054518635716828	2.442766516657564	31.30841539282012	-2.041321951490714	-1.220650730113676	50.41682014703341	134.7543283827053	0	0	47.91996186507292	-27.81804400398249	3.7018529312658	68.18076157063419	103.2550774131532	0	0
7.059999999999937	-6.549513787762386	0.1404887691275703	17.01085047119646	0	0.9399999999999999	0	43.84329860496189	-10.08482135008987	-10.17321616630491	55.52249338254408	0.9690503184421576	0	0	0	43.84329860496189	-10.08482135008987	-10.17321616630491	55.52249338254408	0.9690503184421576	0	0	0	-5.486979682740195	-0.6858927229516334	2.556999038381798	31.32885985151433	-2.043598744568654	-1.176302802966022	50.44674696986354	134.6931509977613	0	0	49.26580646740534	-27.63427305557288	4.292257372249648	66.35214169838089	102.8045868408193	0	0
7.079999999999937	-6.620890382523928	0.2101356280331085	16.75486777992166	0	0.9399999999999999	0	43.84378173725537	-10.08469826655627	-10.17305464777587	55.52234664957042	0.9690477574686461	0	0	0	43.84378173725537	-10.08469826655627	-10.17305464777587	55.52234664957042	0.9690477574686461	0	0	0	-5.534634218705492	-0.6070984366781497	2.661367850375448	31.42895766431977	-2.147046187838961	-0.9388977306904392	50.49141564249465	134.6026811874046	0	0	50.56052506336864	-27.33052213266128	4.785824872705283	64.46666380826248	102.2376456591727	0	0
7.099999999999937	-6.638727047973763	0.2280765884794504	16.54569165235723	0	0.9399999999999999	0	43.84425927280022	-10.08457665366273	-10.17289501380204	55.52220167985382	0.9690452272697758	0	0	0	43.84425927280022	-10.08457665366273	-10.17289501380204	55.52220167985382	0.9690452272697758	0	0	0	-5.546285396368225	-0.5995293857284398	2.818625346044608	31.4367365778546	-2.139994507769966	-0.935405205619945	50.52501317871557	134.5817948595268	0	0	51.78127143659648	-26.96587367141615	5.540073522930753	62.57287185567955	101.3618049020075	0	0
